#N canvas 0 28 1920 907 12;
#X declare -lib Gem;
#N canvas 0 25 1920 907 synth 1;
#X obj 85 23 inlet;
#X obj 155 24 inlet;
#X obj 9 24 inlet;
#X obj 17 265 mtof;
#X floatatom 43 293 5 0 0 0 - - - 0;
#X obj 22 636 dac~;
#X obj 230 23 inlet;
#X obj 230 73 * 5000;
#X obj 316 23 inlet;
#X obj 399 23 inlet;
#X floatatom 416 49 5 0 0 0 - - - 0;
#X text 313 3 reverb;
#X text 6 4 volume;
#X text 154 5 sleuth;
#X text 84 3 bpm;
#X floatatom 331 47 5 0 0 0 - - - 0;
#X obj 316 72 * 50;
#N canvas 0 38 864 940 reverb 0;
#X obj 240 50 inlet;
#X obj 176 51 inlet;
#X obj 111 50 inlet~;
#X obj 51 49 inlet~;
#X obj 70 404 outlet~;
#X obj 50 295 *~;
#X obj 95 303 *~;
#X obj 136 300 *~;
#X obj 242 245 hsl 162 19 0 50 0 0 empty empty empty -2 -10 0 12 #fcfcfc #000000 #000000 0 1;
#X obj 92 245 rev2~ 65 90 3000 20;
#X floatatom 250 75 5 0 0 0 - - - 0;
#X text 239 22 dry;
#X text 179 22 reverb;
#X floatatom 282 168 5 0 0 0 - - - 0;
#X connect 0 0 5 1;
#X connect 0 0 10 0;
#X connect 1 0 8 0;
#X connect 1 0 13 0;
#X connect 2 0 9 0;
#X connect 3 0 5 0;
#X connect 5 0 4 0;
#X connect 6 0 4 0;
#X connect 7 0 4 0;
#X connect 8 0 7 1;
#X connect 8 0 6 1;
#X connect 9 0 6 0;
#X connect 9 1 7 0;
#X restore 17 387 pd reverb;
#X obj 475 23 inlet;
#X text 228 4 res freq;
#X floatatom 493 50 5 0 0 0 - - - 0;
#X obj 20 569 clip~ -1.5 1.5;
#N canvas 0 38 1728 936 delay 0;
#X obj 253 154 delwrite~ delayname1 1000;
#X obj 477 81 inlet;
#X obj 251 274 delread~ delayname1 500;
#X obj 242 77 inlet~;
#X obj 242 375 outlet~;
#X obj 255 235 hsl 162 19 0 250 0 0 empty empty delay\ amt -2 -10 0 12 #fcfcfc #000000 #000000 0 1;
#X obj 461 220 *~ 0.7;
#X obj 482 127 * 200;
#X floatatom 499 151 5 0 0 0 - - - 0;
#X obj 165 178 loadbang;
#X msg 177 202 0;
#X connect 1 0 7 0;
#X connect 2 0 4 0;
#X connect 2 0 6 0;
#X connect 3 0 0 0;
#X connect 5 0 2 0;
#X connect 6 0 0 0;
#X connect 7 0 5 0;
#X connect 7 0 8 0;
#X connect 9 0 10 0;
#X connect 10 0 5 0;
#X restore 18 419 pd delay;
#X text 474 4 delay amt;
#X obj 559 22 inlet;
#X floatatom 573 45 5 0 0 0 - - - 0;
#X obj 22 599 panner~;
#X obj 636 66 tgl 19 0 empty empty empty 0 -10 0 12 #fcfcfc #000000 #000000 0 1;
#X floatatom 662 131 5 0 0 0 - - - 0;
#N canvas 0 38 864 933 arpeggiator 0;
#X obj 44 65 inlet;
#X obj 135 65 inlet;
#X text 35 33 on/off;
#X text 138 32 bpm;
#X obj 108 497 outlet;
#X msg 130 246 tempo \$1 permin;
#X obj 109 288 metro 0.25 120 permin;
#X msg 160 324 0;
#X obj 115 360 f;
#X obj 156 360 + 1;
#X obj 114 390 % 4;
#X obj 111 431 array get \$0-pitches;
#N canvas 0 22 450 278 (subpatch) 0;
#X array \$0-pitches 4 float 3;
#A 0 48 71 67 65;
#X coords 0 90 4 20 200 140 1 0 0;
#X restore 497 43 graph;
#X obj 343 19 notein;
#X obj 343 47 stripnote;
#X obj 342 102 t f b;
#X obj 412 101 f;
#X obj 442 102 + 1;
#X obj 441 126 % 4;
#X obj 341 157 array set \$0-pitches;
#X text 245 80 connect to t to control mult notes;
#X floatatom 297 437 5 0 0 0 - - - 0;
#X obj 297 500 outlet;
#X floatatom 189 132 5 0 0 0 - - - 0;
#X text 113 476 pitches played;
#X text 303 479 last note played;
#X connect 0 0 6 0;
#X connect 0 0 7 0;
#X connect 1 0 5 0;
#X connect 1 0 23 0;
#X connect 5 0 6 0;
#X connect 6 0 8 0;
#X connect 7 0 8 1;
#X connect 7 0 4 0;
#X connect 8 0 9 0;
#X connect 8 0 10 0;
#X connect 9 0 8 1;
#X connect 10 0 11 0;
#X connect 11 0 4 0;
#X connect 13 0 14 0;
#X connect 13 1 14 1;
#X connect 14 0 15 0;
#X connect 14 0 21 0;
#X connect 15 0 19 0;
#X connect 15 1 16 0;
#X connect 16 0 17 0;
#X connect 16 0 19 1;
#X connect 17 0 18 0;
#X connect 18 0 16 1;
#X connect 21 0 22 0;
#X restore 638 97 pd arpeggiator;
#N canvas 0 38 1728 941 oscillo 0;
#X obj 139 158 inlet;
#X obj 251 118 bng 19 250 50 0 empty empty empty 0 -10 0 12 #fcfcfc #000000 #000000;
#X obj 390 154 inlet~;
#X text 243 22 refresh rate of oscilloscope;
#X obj 252 85 metro 0.25 120 permin;
#X text 137 137 on/off;
#X text 390 130 signal;
#X obj 189 55 tgl 19 0 empty empty empty 0 -10 0 12 #fcfcfc #000000 #000000 0 1;
#X obj 375 212 tabwrite~ oscilo;
#X msg 262 50 tempo 300 permin;
#X connect 0 0 7 0;
#X connect 1 0 8 0;
#X connect 2 0 8 0;
#X connect 4 0 1 0;
#X connect 7 0 4 0;
#X connect 9 0 4 0;
#X restore 135 629 pd oscillo;
#X obj 652 22 inlet;
#X text 651 3 arp on/off;
#X obj 136 600 tgl 19 0 empty empty empty 0 -10 0 12 #fcfcfc #000000 #000000 0 1;
#X floatatom 100 49 5 0 0 0 - - - 0;
#X floatatom 25 48 5 0 0 0 - - - 0;
#X obj 136 575 loadbang;
#X floatatom 170 48 5 0 0 0 - - - 0;
#X obj 156 74 * 100;
#X text 557 3 pan amt;
#X floatatom 245 45 5 0 0 0 - - - 0;
#X obj 12 69 * 6;
#N canvas 0 25 1920 907 filters 0;
#X obj 142 33 inlet;
#X text 142 11 res freq amt;
#X obj 101 187 line~;
#X text 170 129 Hz;
#X obj 101 156 pack f 50;
#X floatatom 101 129 8 0 0 0 - - - 0;
#X obj 103 104 hsl 162 19 50 5000 0 1 empty empty empty -2 -8 0 10 #dfdfdf #000000 #000000 2655 1;
#X text 68 76 resonant/cutoff frequency;
#X obj 35 413 outlet~;
#X text 33 8 signal;
#X obj 33 33 inlet~;
#X obj 99 216 loadbang;
#X obj 40 285 bob~;
#X obj 39 312 hip~ 5;
#X msg 99 242 520;
#X msg 134 242 3;
#X connect 0 0 6 0;
#X connect 2 0 12 1;
#X connect 4 0 2 0;
#X connect 5 0 4 0;
#X connect 6 0 5 0;
#X connect 10 0 12 0;
#X connect 11 0 14 0;
#X connect 11 0 15 0;
#X connect 12 0 13 0;
#X connect 13 0 8 0;
#X connect 14 0 12 1;
#X connect 15 0 12 2;
#X restore 18 346 pd filters;
#X obj 33 155 notein;
#X floatatom 72 200 5 0 0 0 - - - 0;
#X obj 48 227 select 0;
#N canvas 0 25 1920 910 sleuth 0;
#X obj 19 36 inlet;
#X obj 119 29 inlet;
#X text 118 10 sleuth;
#X obj 25 355 outlet~;
#X obj 24 126 pack;
#X msg 27 176 \$1 \$2;
#X obj 26 202 line~;
#X obj 81 224 *~ 1.003;
#X obj 82 249 phasor~;
#X obj 23 249 phasor~;
#X obj 23 274 expr~ $v1 - 1;
#X listbox 113 153 20 0 0 0 - - - 0;
#X text 15 8 frequency;
#X floatatom 56 73 5 0 0 0 - - - 0;
#X connect 0 0 4 0;
#X connect 0 0 13 0;
#X connect 1 0 4 1;
#X connect 4 0 5 0;
#X connect 4 0 11 0;
#X connect 5 0 6 0;
#X connect 6 0 7 0;
#X connect 6 0 9 0;
#X connect 7 0 8 0;
#X connect 8 0 10 0;
#X connect 9 0 10 0;
#X connect 10 0 3 0;
#X restore 17 318 pd sleuth;
#X obj 251 456 bng 19 250 50 0 empty empty empty 0 -10 0 12 #fcfcfc #000000 #000000;
#X obj 252 485 0;
#X obj 187 458 bng 19 250 50 0 empty empty empty 0 -10 0 12 #fcfcfc #000000 #000000;
#N canvas 0 25 1920 907 Volume 0;
#X obj 118 22 inlet;
#X text 117 2 volume;
#X obj 69 124 hsl 162 19 0 6 0 0 empty empty empty -2 -10 0 12 #fcfcfc #000000 #000000 0 1;
#X text 63 97 Volume;
#X obj 28 330 outlet~;
#X floatatom 129 59 5 0 0 0 - - - 0;
#X floatatom 67 154 5 0 0 0 - - - 0;
#X obj 184 21 inlet;
#X text 179 2 key press;
#X obj 286 24 inlet;
#X text 286 3 key release;
#X text 17 2 signal;
#X obj 29 296 *~;
#X obj 20 26 inlet~;
#X text 73 182 TODO want to be able to set the starting volume;
#N canvas 0 25 1920 907 ADSR 0;
#X obj 166 22 inlet;
#X text 161 3 key press;
#X obj 268 25 inlet;
#X text 268 4 key release;
#X obj 216 485 outlet;
#X obj 372 131 bng 19 250 50 0 empty empty empty 0 -10 0 12 #fcfcfc #000000 #000000;
#X obj 240 283 line;
#X floatatom 239 317 5 0 0 0 - - - 0;
#X obj 326 210 bng 19 250 50 0 empty empty empty 0 -10 0 12 #fcfcfc #000000 #000000;
#X obj 408 230 bng 19 250 50 0 empty empty empty 0 -10 0 12 #fcfcfc #000000 #000000;
#X msg 409 283 0 1000;
#X floatatom 199 238 5 0 0 0 - - - 0;
#X text 328 231 decay;
#X text 233 185 attack;
#X text 412 159 sustain;
#X obj 325 184 delay 10;
#X text 406 261 release;
#X obj 407 186 delay 600;
#X obj 210 123 bng 19 250 50 0 empty empty empty 0 -10 0 12 #fcfcfc #000000 #000000;
#X obj 23 21 inlet;
#X text 22 1 volume;
#X floatatom 81 49 5 0 0 0 - - - 0;
#X text 544 222 comment;
#X obj 55 168 f;
#X floatatom 46 235 5 0 0 0 - - - 0;
#X msg 326 253 1 200;
#X msg 235 206 \$1 1;
#X connect 0 0 18 0;
#X connect 2 0 5 0;
#X connect 5 0 9 0;
#X connect 6 0 7 0;
#X connect 6 0 4 0;
#X connect 8 0 25 0;
#X connect 9 0 10 0;
#X connect 10 0 6 0;
#X connect 15 0 8 0;
#X connect 17 0 9 0;
#X connect 18 0 15 0;
#X connect 18 0 23 0;
#X connect 19 0 21 0;
#X connect 19 0 23 1;
#X connect 23 0 26 0;
#X connect 23 0 24 0;
#X connect 25 0 6 0;
#X connect 26 0 6 0;
#X connect 26 0 11 0;
#X restore 357 200 pd ADSR;
#X connect 0 0 2 0;
#X connect 0 0 5 0;
#X connect 2 0 6 0;
#X connect 2 0 15 0;
#X connect 7 0 15 1;
#X connect 9 0 15 2;
#X connect 12 0 4 0;
#X connect 13 0 12 0;
#X connect 15 0 12 1;
#X restore 138 513 pd Volume;
#X floatatom 194 487 5 0 0 0 - - - 0;
#X obj 86 74 * 400;
#X obj 31 95 / 6;
#X text 395 1 chorus amt;
#N canvas 0 38 864 933 chorus 0;
#X text 22 5 signal;
#X obj 47 126 delwrite~ chorus 1000;
#X obj 125 419 delread4~ chorus 1000;
#X floatatom 124 185 5 0 0 0 - - - 0;
#X obj 124 208 osc~;
#X obj 124 232 *~;
#X msg 209 313 \$1 20;
#X obj 209 338 line~;
#X obj 124 368 +~;
#X obj 130 485 *~;
#X obj 128 556 outlet~;
#X obj 110 30 inlet;
#X text 107 8 rate amt;
#X text 235 285 del_time;
#X text 235 202 depth;
#X text 161 184 rate;
#X text 225 463 fx_amount;
#X floatatom 163 65 5 0 0 0 - - - 0;
#X obj 27 30 inlet~;
#X obj 131 87 * 8;
#X msg 208 287 40;
#X obj 208 259 loadbang;
#X msg 206 203 0.9;
#X msg 161 465 1;
#X obj 208 177 loadbang;
#X obj 162 443 loadbang;
#X connect 2 0 9 0;
#X connect 3 0 4 0;
#X connect 4 0 5 0;
#X connect 5 0 8 0;
#X connect 6 0 7 0;
#X connect 7 0 8 1;
#X connect 8 0 2 0;
#X connect 9 0 10 0;
#X connect 11 0 17 0;
#X connect 11 0 19 0;
#X connect 18 0 1 0;
#X connect 19 0 3 0;
#X connect 20 0 6 0;
#X connect 21 0 20 0;
#X connect 22 0 5 1;
#X connect 23 0 9 1;
#X connect 24 0 22 0;
#X connect 25 0 23 0;
#X restore 21 452 pd chorus;
#X obj 79 681 * 0.75;
#X obj 853 27 inlet;
#X obj 938 27 inlet;
#X text 849 7 vis on;
#X text 937 7 vis off;
#N canvas 34 59 1920 907 Visualizer 1;
#X obj 999 33 inlet;
#X obj 1046 33 inlet;
#X obj 6 24 inlet;
#X obj 997 122 gemwin;
#X msg 997 68 create \, 1;
#X msg 1077 69 0 \, destroy;
#X msg 999 95 dimen 640 480;
#X obj 754 37 inlet;
#X obj 262 31 inlet;
#X obj 883 35 inlet;
#X text 259 7 sleuth;
#X text 3 2 volume;
#X floatatom 882 62 5 0 0 0 - - - 0;
#X obj 1107 33 declare -lib Gem;
#X obj 335 29 inlet;
#X text 333 7 res freq;
#X floatatom 333 157 5 0 0 0 - - - 0;
#X obj 333 132 + 10;
#X obj 333 108 * -9;
#X obj 670 33 inlet;
#X text 668 10 pan amount;
#X floatatom 700 113 5 0 0 0 - - - 0;
#X obj 669 82 expr 1.2 * ($f1/ 0.5 - 1);
#N canvas 34 59 500 372 GemShapes 0;
#X obj 35 35 inlet;
#X obj 149 39 inlet;
#X obj 212 34 inlet;
#X text 212 13 sleuth;
#X text 92 14 bpm;
#X text 30 10 volume;
#X obj 272 34 inlet;
#X text 269 9 res freq;
#X obj 578 34 inlet;
#X text 576 9 pan amount;
#X obj 654 37 inlet;
#X text 636 270 TODO figure out how to add background images to visualizer (of the clouds);
#X obj 641 147 bng 19 250 50 0 empty empty empty 17 7 0 10 #dfdfdf #000000 #000000;
#X obj 677 147 bng 19 250 50 0 empty empty empty 17 7 0 10 #dfdfdf #000000 #000000;
#X obj 713 147 bng 19 250 50 0 empty empty empty 17 7 0 10 #dfdfdf #000000 #000000;
#X obj 753 148 bng 19 250 50 0 empty empty empty 17 7 0 10 #dfdfdf #000000 #000000;
#X obj 785 149 bng 19 250 50 0 empty empty empty 17 7 0 10 #dfdfdf #000000 #000000;
#X obj 641 118 select 48 50 52 53 55 57 59 61 62 64;
#N canvas 0 38 864 933 GemObj2 0;
#X obj 28 49 inlet;
#X text 28 20 on/off;
#X obj 110 45 inlet;
#X obj 383 42 inlet;
#X obj 187 46 inlet;
#X text 184 21 sleuth;
#X text 280 20 bpm;
#X text 105 20 volume;
#X obj 506 46 inlet;
#X text 503 21 res freq;
#X obj 721 47 inlet;
#X text 719 20 pan amount;
#X obj 572 210 i;
#X obj 656 210 % 360;
#X obj 573 159 t f f;
#X obj 573 133 tgl 19 0 empty empty empty 0 -10 0 12 #fcfcfc #000000 #000000 0 1;
#X obj 574 96 loadbang;
#X floatatom 571 234 5 0 0 0 - - - 0;
#X obj 614 211 + 1;
#X obj 572 185 metro 10;
#X floatatom 112 105 5 0 0 0 - - - 0;
#X obj 112 79 / 10;
#N canvas 0 38 1728 930 colorGen 0;
#X obj 197 296 random 10;
#X obj 273 295 random 10;
#X obj 353 296 random 10;
#X obj 196 330 + 1;
#X obj 274 329 + 1;
#X obj 354 328 + 1;
#X floatatom 195 361 5 0 0 0 - - - 0;
#X floatatom 273 360 5 0 0 0 - - - 0;
#X floatatom 354 357 5 0 0 0 - - - 0;
#X obj 284 237 bng 19 250 50 0 empty empty empty 0 -10 0 12 #fcfcfc #000000 #000000;
#X obj 195 398 / 1;
#X obj 272 396 / 1;
#X obj 362 393 / 1;
#X obj 198 429 * 0.1;
#X floatatom 199 466 5 0 0 0 - - - 0;
#X obj 272 426 * 0.1;
#X floatatom 273 463 5 0 0 0 - - - 0;
#X obj 359 427 * 0.1;
#X floatatom 360 464 5 0 0 0 - - - 0;
#X obj 281 153 inlet;
#X obj 198 537 outlet;
#X obj 274 537 outlet;
#X obj 363 536 outlet;
#X connect 0 0 3 0;
#X connect 1 0 4 0;
#X connect 2 0 5 0;
#X connect 3 0 6 0;
#X connect 4 0 7 0;
#X connect 5 0 8 0;
#X connect 6 0 10 0;
#X connect 7 0 11 0;
#X connect 8 0 12 0;
#X connect 9 0 0 0;
#X connect 9 0 1 0;
#X connect 9 0 2 0;
#X connect 10 0 13 0;
#X connect 11 0 15 0;
#X connect 12 0 17 0;
#X connect 13 0 14 0;
#X connect 14 0 20 0;
#X connect 15 0 16 0;
#X connect 16 0 21 0;
#X connect 17 0 18 0;
#X connect 18 0 22 0;
#X connect 19 0 9 0;
#X restore 387 177 pd colorGen;
#N canvas 34 72 1205 693 rotateAmt 0;
#X obj 363 221 inlet;
#X obj 336 365 + 1;
#X floatatom 335 396 5 0 0 0 - - - 0;
#X obj 331 444 outlet;
#X obj 348 275 bng 19 250 50 0 empty empty empty 0 -10 0 12 #fcfcfc #000000 #000000;
#X obj 337 331 random 360;
#X connect 0 0 4 0;
#X connect 1 0 2 0;
#X connect 2 0 3 0;
#X connect 4 0 5 0;
#X connect 5 0 1 0;
#X restore 382 210 pd rotateAmt;
#X obj 383 75 bng 19 250 50 0 empty empty empty 0 -10 0 12 #fcfcfc #000000 #000000;
#X obj 383 124 line;
#X msg 383 102 0.5 10;
#X msg 439 103 2.5 200;
#X floatatom 382 149 5 0 0 0 - - - 0;
#X obj 439 78 delay 10;
#X msg 26 520 draw line;
#X obj 31 498 loadbang;
#X obj 35 585 sphere;
#X obj 275 464 rotateXYZ 0 1 0;
#X obj 34 350 loadbang;
#X msg 47 381 120;
#X obj 27 469 translateXYZ;
#X obj 84 440 + 0.75;
#X obj 147 441 - 0.75;
#X obj 28 284 colorRGB;
#X obj 28 319 scaleXYZ;
#X obj 30 249 gemhead;
#X obj 29 216 tgl 19 0 empty empty empty 0 -10 0 12 #fcfcfc #000000 #000000 0 1;
#X obj 585 45 inlet;
#X text 584 15 reverb amt;
#X obj 280 45 inlet;
#X text 379 19 # of hits;
#X floatatom 720 189 5 0 0 0 - - - 0;
#X obj 664 99 / 2.5;
#X obj 665 126 * 15;
#X obj 666 165 expr $f1 + $f2;
#X floatatom 730 134 5 0 0 0 - - - 0;
#X connect 0 0 42 0;
#X connect 2 0 21 0;
#X connect 3 0 22 0;
#X connect 3 0 23 0;
#X connect 3 0 24 0;
#X connect 4 0 32 2;
#X connect 8 0 50 0;
#X connect 10 0 36 1;
#X connect 10 0 37 0;
#X connect 10 0 38 0;
#X connect 12 0 17 0;
#X connect 12 0 18 0;
#X connect 13 0 12 1;
#X connect 14 0 19 0;
#X connect 15 0 14 0;
#X connect 16 0 15 0;
#X connect 17 0 33 3;
#X connect 18 0 13 0;
#X connect 19 0 12 0;
#X connect 20 0 32 1;
#X connect 21 0 20 0;
#X connect 22 0 39 1;
#X connect 22 1 39 2;
#X connect 22 2 39 3;
#X connect 23 0 33 2;
#X connect 24 0 26 0;
#X connect 24 0 29 0;
#X connect 25 0 28 0;
#X connect 26 0 25 0;
#X connect 27 0 25 0;
#X connect 28 0 40 1;
#X connect 28 0 40 2;
#X connect 28 0 40 3;
#X connect 29 0 27 0;
#X connect 30 0 32 0;
#X connect 31 0 30 0;
#X connect 33 0 36 0;
#X connect 34 0 35 0;
#X connect 35 0 33 1;
#X connect 36 0 32 0;
#X connect 37 0 36 2;
#X connect 38 0 36 3;
#X connect 39 0 40 0;
#X connect 40 0 33 0;
#X connect 41 0 39 0;
#X connect 42 0 41 0;
#X connect 43 0 48 0;
#X connect 48 0 49 0;
#X connect 49 0 50 1;
#X connect 49 0 51 0;
#X connect 50 0 47 0;
#X connect 50 0 19 1;
#X restore 161 379 pd GemObj2;
#X f 18;
#N canvas 0 38 864 933 GemObj3 0;
#X obj 28 49 inlet;
#X text 28 20 on/off;
#X obj 110 45 inlet;
#X obj 442 42 inlet;
#X obj 214 45 inlet;
#X text 211 20 sleuth;
#X text 320 21 bpm;
#X text 105 20 volume;
#X obj 561 42 inlet;
#X text 558 17 res freq;
#X obj 783 44 inlet;
#X text 781 17 pan amount;
#X obj 634 207 i;
#X obj 718 207 % 360;
#X obj 635 156 t f f;
#X obj 635 130 tgl 19 0 empty empty empty 0 -10 0 12 #fcfcfc #000000 #000000 0 1;
#X obj 636 93 loadbang;
#X floatatom 633 231 5 0 0 0 - - - 0;
#X obj 676 208 + 1;
#X obj 634 182 metro 10;
#X floatatom 112 105 5 0 0 0 - - - 0;
#X obj 112 79 / 10;
#N canvas 0 38 1728 930 colorGen 0;
#X obj 197 296 random 10;
#X obj 273 295 random 10;
#X obj 353 296 random 10;
#X obj 196 330 + 1;
#X obj 274 329 + 1;
#X obj 354 328 + 1;
#X floatatom 195 361 5 0 0 0 - - - 0;
#X floatatom 273 360 5 0 0 0 - - - 0;
#X floatatom 354 357 5 0 0 0 - - - 0;
#X obj 284 237 bng 19 250 50 0 empty empty empty 0 -10 0 12 #fcfcfc #000000 #000000;
#X obj 195 398 / 1;
#X obj 272 396 / 1;
#X obj 362 393 / 1;
#X obj 198 429 * 0.1;
#X floatatom 199 466 5 0 0 0 - - - 0;
#X obj 272 426 * 0.1;
#X floatatom 273 463 5 0 0 0 - - - 0;
#X obj 359 427 * 0.1;
#X floatatom 360 464 5 0 0 0 - - - 0;
#X obj 281 153 inlet;
#X obj 198 537 outlet;
#X obj 274 537 outlet;
#X obj 363 536 outlet;
#X connect 0 0 3 0;
#X connect 1 0 4 0;
#X connect 2 0 5 0;
#X connect 3 0 6 0;
#X connect 4 0 7 0;
#X connect 5 0 8 0;
#X connect 6 0 10 0;
#X connect 7 0 11 0;
#X connect 8 0 12 0;
#X connect 9 0 0 0;
#X connect 9 0 1 0;
#X connect 9 0 2 0;
#X connect 10 0 13 0;
#X connect 11 0 15 0;
#X connect 12 0 17 0;
#X connect 13 0 14 0;
#X connect 14 0 20 0;
#X connect 15 0 16 0;
#X connect 16 0 21 0;
#X connect 17 0 18 0;
#X connect 18 0 22 0;
#X connect 19 0 9 0;
#X restore 443 172 pd colorGen;
#N canvas 34 72 1205 693 rotateAmt 0;
#X obj 363 221 inlet;
#X obj 336 365 + 1;
#X floatatom 335 396 5 0 0 0 - - - 0;
#X obj 331 444 outlet;
#X obj 348 275 bng 19 250 50 0 empty empty empty 0 -10 0 12 #fcfcfc #000000 #000000;
#X obj 337 331 random 360;
#X connect 0 0 4 0;
#X connect 1 0 2 0;
#X connect 2 0 3 0;
#X connect 4 0 5 0;
#X connect 5 0 1 0;
#X restore 438 205 pd rotateAmt;
#X obj 442 71 bng 19 250 50 0 empty empty empty 0 -10 0 12 #fcfcfc #000000 #000000;
#X obj 442 120 line;
#X msg 442 98 0.5 10;
#X msg 498 99 2.5 200;
#X floatatom 441 145 5 0 0 0 - - - 0;
#X obj 498 74 delay 10;
#X obj 34 528 loadbang;
#X obj 34 434 rotateXYZ 0 1 0;
#X obj 53 378 loadbang;
#X msg 70 405 120;
#X obj 33 497 translateXYZ;
#X obj 110 466 - 0.75;
#X obj 165 464 + 0.75;
#X obj 25 298 colorRGB;
#X obj 32 339 scaleXYZ;
#X obj 29 261 gemhead;
#X obj 30 233 tgl 19 0 empty empty empty 0 -10 0 12 #fcfcfc #000000 #000000 0 1;
#X msg 34 558 draw fill;
#X obj 80 592 cone;
#X msg 169 563 draw line;
#X obj 682 45 inlet;
#X text 681 15 reverb amt;
#X obj 320 42 inlet;
#X text 443 19 # of hits;
#X floatatom 772 184 5 0 0 0 - - - 0;
#X obj 716 94 / 2.5;
#X obj 717 121 * 15;
#X obj 718 160 expr $f1 + $f2;
#X floatatom 782 129 5 0 0 0 - - - 0;
#X connect 0 0 40 0;
#X connect 2 0 21 0;
#X connect 3 0 22 0;
#X connect 3 0 23 0;
#X connect 3 0 24 0;
#X connect 4 0 42 2;
#X connect 8 0 51 0;
#X connect 10 0 36 0;
#X connect 10 0 35 0;
#X connect 10 0 34 1;
#X connect 12 0 17 0;
#X connect 12 0 18 0;
#X connect 13 0 12 1;
#X connect 14 0 19 0;
#X connect 15 0 14 0;
#X connect 16 0 15 0;
#X connect 17 0 31 3;
#X connect 18 0 13 0;
#X connect 19 0 12 0;
#X connect 20 0 42 1;
#X connect 21 0 20 0;
#X connect 22 0 37 1;
#X connect 22 1 37 2;
#X connect 22 2 37 3;
#X connect 23 0 31 2;
#X connect 24 0 26 0;
#X connect 24 0 29 0;
#X connect 25 0 28 0;
#X connect 26 0 25 0;
#X connect 27 0 25 0;
#X connect 28 0 38 1;
#X connect 28 0 38 2;
#X connect 28 0 38 3;
#X connect 29 0 27 0;
#X connect 30 0 41 0;
#X connect 31 0 34 0;
#X connect 32 0 33 0;
#X connect 33 0 31 1;
#X connect 34 0 42 0;
#X connect 35 0 34 2;
#X connect 36 0 34 3;
#X connect 37 0 38 0;
#X connect 38 0 31 0;
#X connect 39 0 37 0;
#X connect 40 0 39 0;
#X connect 41 0 42 0;
#X connect 43 0 42 0;
#X connect 44 0 49 0;
#X connect 49 0 50 0;
#X connect 50 0 51 1;
#X connect 50 0 52 0;
#X connect 51 0 48 0;
#X connect 51 0 19 1;
#X restore 306 378 pd GemObj3;
#X f 18;
#N canvas 0 38 864 933 GemObj4 0;
#X obj 28 49 inlet;
#X text 28 20 on/off;
#X obj 110 45 inlet;
#X obj 385 46 inlet;
#X obj 187 46 inlet;
#X text 184 21 sleuth;
#X text 286 24 bpm;
#X text 105 20 volume;
#X obj 580 37 inlet;
#X text 577 12 res freq;
#X obj 786 39 inlet;
#X text 784 12 pan amount;
#X obj 579 198 i;
#X obj 663 198 % 360;
#X obj 580 147 t f f;
#X obj 580 121 tgl 19 0 empty empty empty 0 -10 0 12 #fcfcfc #000000 #000000 0 1;
#X obj 581 84 loadbang;
#X floatatom 578 222 5 0 0 0 - - - 0;
#X obj 621 199 + 1;
#X obj 579 173 metro 10;
#N canvas 0 38 1728 930 colorGen 0;
#X obj 197 296 random 10;
#X obj 273 295 random 10;
#X obj 353 296 random 10;
#X obj 196 330 + 1;
#X obj 274 329 + 1;
#X obj 354 328 + 1;
#X floatatom 195 361 5 0 0 0 - - - 0;
#X floatatom 273 360 5 0 0 0 - - - 0;
#X floatatom 354 357 5 0 0 0 - - - 0;
#X obj 284 237 bng 19 250 50 0 empty empty empty 0 -10 0 12 #fcfcfc #000000 #000000;
#X obj 195 398 / 1;
#X obj 272 396 / 1;
#X obj 362 393 / 1;
#X obj 198 429 * 0.1;
#X floatatom 199 466 5 0 0 0 - - - 0;
#X obj 272 426 * 0.1;
#X floatatom 273 463 5 0 0 0 - - - 0;
#X obj 359 427 * 0.1;
#X floatatom 360 464 5 0 0 0 - - - 0;
#X obj 281 153 inlet;
#X obj 198 537 outlet;
#X obj 274 537 outlet;
#X obj 363 536 outlet;
#X connect 0 0 3 0;
#X connect 1 0 4 0;
#X connect 2 0 5 0;
#X connect 3 0 6 0;
#X connect 4 0 7 0;
#X connect 5 0 8 0;
#X connect 6 0 10 0;
#X connect 7 0 11 0;
#X connect 8 0 12 0;
#X connect 9 0 0 0;
#X connect 9 0 1 0;
#X connect 9 0 2 0;
#X connect 10 0 13 0;
#X connect 11 0 15 0;
#X connect 12 0 17 0;
#X connect 13 0 14 0;
#X connect 14 0 20 0;
#X connect 15 0 16 0;
#X connect 16 0 21 0;
#X connect 17 0 18 0;
#X connect 18 0 22 0;
#X connect 19 0 9 0;
#X restore 375 192 pd colorGen;
#N canvas 34 72 1205 693 rotateAmt 0;
#X obj 363 221 inlet;
#X obj 336 365 + 1;
#X floatatom 335 396 5 0 0 0 - - - 0;
#X obj 331 444 outlet;
#X obj 348 275 bng 19 250 50 0 empty empty empty 0 -10 0 12 #fcfcfc #000000 #000000;
#X obj 337 331 random 360;
#X connect 0 0 4 0;
#X connect 1 0 2 0;
#X connect 2 0 3 0;
#X connect 4 0 5 0;
#X connect 5 0 1 0;
#X restore 370 225 pd rotateAmt;
#X obj 379 84 bng 19 250 50 0 empty empty empty 0 -10 0 12 #fcfcfc #000000 #000000;
#X obj 381 141 line;
#X floatatom 384 166 5 0 0 0 - - - 0;
#X obj 433 86 delay 10;
#X obj 159 738 model;
#X obj 380 420 bng 15 250 50 0 empty empty empty 0 -6 0 8 #fcfcfc #000000 #000000;
#X obj 380 438 openpanel;
#X obj 478 374 tgl 15 0 empty empty empty 0 -6 0 8 #fcfcfc #000000 #000000 0 1;
#X msg 478 394 rescale \$1;
#X msg 384 504 smooth \$1;
#X obj 478 434 tgl 15 0 empty empty empty 0 -6 0 8 #fcfcfc #000000 #000000 0 1;
#X msg 478 454 revert \$1;
#X msg 380 554 material \$1;
#X msg 478 504 texture \$1;
#X msg 480 556 group \$1;
#X floatatom 383 482 5 0 1 0 - - - 0;
#X msg 380 459 open \$1;
#X obj 480 538 hradio 15 1 0 3 empty empty empty 0 -6 0 8 #fcfcfc #000000 #000000 0;
#X obj 380 534 tgl 15 0 empty empty empty 0 -6 0 8 #fcfcfc #000000 #000000 0 1;
#X obj 478 484 hradio 15 1 0 3 empty empty empty 0 -6 0 8 #fcfcfc #000000 #000000 0;
#X msg 235 671 backend OBJ;
#X msg 244 691 backend ASSIMP3;
#X msg 242 714 backend;
#X obj 160 675 t a;
#X obj 200 677 t a;
#X text 291 714 query backends;
#X obj 214 714 t a;
#X obj 218 741 r \$0-ctl;
#X obj 156 425 rotateXYZ 0 1 0;
#X obj 160 480 translateXYZ;
#X obj 162 374 loadbang;
#X msg 187 396 120;
#X obj 198 452 - 0.75;
#X obj 250 452 + 0.75;
#X obj 144 453 + 0.75;
#X obj 385 379 / 10;
#X obj 37 668 loadbang;
#X msg 38 697 open model.dae;
#X obj 155 339 scaleXYZ;
#X obj 153 274 gemhead;
#X obj 151 243 tgl 19 0 empty empty empty 0 -10 0 12 #fcfcfc #000000 #000000 0 1;
#X text 107 1 TODO fix scaling of table + sleuth!!!!!;
#X msg 440 118 2 200;
#X msg 379 117 0.5 10;
#X obj 157 570 pix_texture;
#X obj 158 543 pix_image ../patches/Rayas.jpeg;
#X obj 164 311 colorRGB 1 1 1;
#X obj 685 40 inlet;
#X text 684 10 reverb amt;
#X obj 286 48 inlet;
#X text 385 24 # of hits;
#X floatatom 720 182 5 0 0 0 - - - 0;
#X obj 664 92 / 2.5;
#X obj 665 119 * 15;
#X obj 666 158 expr $f1 + $f2;
#X floatatom 730 127 5 0 0 0 - - - 0;
#X floatatom 156 77 5 0 0 0 - - - 0;
#X obj 110 76 / 9.5;
#X connect 0 0 62 0;
#X connect 2 0 78 0;
#X connect 2 0 79 0;
#X connect 3 0 20 0;
#X connect 3 0 21 0;
#X connect 3 0 22 0;
#X connect 8 0 76 0;
#X connect 10 0 56 0;
#X connect 10 0 54 0;
#X connect 10 0 55 0;
#X connect 12 0 17 0;
#X connect 12 0 18 0;
#X connect 13 0 12 1;
#X connect 14 0 19 0;
#X connect 15 0 14 0;
#X connect 16 0 15 0;
#X connect 17 0 50 3;
#X connect 18 0 13 0;
#X connect 19 0 12 0;
#X connect 21 0 50 2;
#X connect 22 0 65 0;
#X connect 22 0 25 0;
#X connect 23 0 24 0;
#X connect 24 0 60 1;
#X connect 24 0 60 2;
#X connect 24 0 60 3;
#X connect 25 0 64 0;
#X connect 27 0 28 0;
#X connect 28 0 38 0;
#X connect 29 0 30 0;
#X connect 30 0 46 0;
#X connect 31 0 45 0;
#X connect 32 0 33 0;
#X connect 33 0 46 0;
#X connect 34 0 45 0;
#X connect 35 0 46 0;
#X connect 36 0 46 0;
#X connect 37 0 31 0;
#X connect 38 0 45 0;
#X connect 39 0 36 0;
#X connect 40 0 34 0;
#X connect 41 0 35 0;
#X connect 42 0 48 0;
#X connect 43 0 48 0;
#X connect 44 0 48 0;
#X connect 45 0 26 0;
#X connect 46 0 26 0;
#X connect 48 0 26 0;
#X connect 49 0 26 0;
#X connect 50 0 51 0;
#X connect 51 0 67 0;
#X connect 52 0 53 0;
#X connect 53 0 50 1;
#X connect 54 0 51 2;
#X connect 55 0 51 3;
#X connect 56 0 51 1;
#X connect 57 0 37 0;
#X connect 58 0 59 0;
#X connect 59 0 26 0;
#X connect 60 0 50 0;
#X connect 61 0 68 0;
#X connect 62 0 61 0;
#X connect 64 0 23 0;
#X connect 65 0 23 0;
#X connect 66 0 45 0;
#X connect 67 0 66 0;
#X connect 68 0 60 0;
#X connect 69 0 74 0;
#X connect 74 0 75 0;
#X connect 75 0 76 1;
#X connect 75 0 77 0;
#X connect 76 0 73 0;
#X connect 76 0 19 1;
#X connect 79 0 60 1;
#X connect 79 0 60 2;
#X connect 79 0 60 3;
#X restore 453 379 pd GemObj4;
#X f 17;
#N canvas 0 38 864 933 GemObj5 0;
#X obj 28 49 inlet;
#X text 28 20 on/off;
#X obj 110 45 inlet;
#X obj 340 43 inlet;
#X obj 187 46 inlet;
#X text 184 21 sleuth;
#X text 267 16 bpm;
#X text 105 20 volume;
#X obj 461 46 inlet;
#X text 458 21 res freq;
#X obj 786 45 inlet;
#X text 784 18 pan amount;
#X obj 535 210 i;
#X obj 619 210 % 360;
#X obj 536 159 t f f;
#X obj 536 133 tgl 19 0 empty empty empty 0 -10 0 12 #fcfcfc #000000 #000000 0 1;
#X obj 537 96 loadbang;
#X floatatom 534 234 5 0 0 0 - - - 0;
#X obj 577 211 + 1;
#X obj 535 185 metro 10;
#X floatatom 112 105 5 0 0 0 - - - 0;
#X obj 112 79 / 10;
#N canvas 0 38 1728 930 colorGen 0;
#X obj 197 296 random 10;
#X obj 273 295 random 10;
#X obj 353 296 random 10;
#X obj 196 330 + 1;
#X obj 274 329 + 1;
#X obj 354 328 + 1;
#X floatatom 195 361 5 0 0 0 - - - 0;
#X floatatom 273 360 5 0 0 0 - - - 0;
#X floatatom 354 357 5 0 0 0 - - - 0;
#X obj 284 237 bng 19 250 50 0 empty empty empty 0 -10 0 12 #fcfcfc #000000 #000000;
#X obj 195 398 / 1;
#X obj 272 396 / 1;
#X obj 362 393 / 1;
#X obj 198 429 * 0.1;
#X floatatom 199 466 5 0 0 0 - - - 0;
#X obj 272 426 * 0.1;
#X floatatom 273 463 5 0 0 0 - - - 0;
#X obj 359 427 * 0.1;
#X floatatom 360 464 5 0 0 0 - - - 0;
#X obj 281 153 inlet;
#X obj 198 537 outlet;
#X obj 274 537 outlet;
#X obj 363 536 outlet;
#X connect 0 0 3 0;
#X connect 1 0 4 0;
#X connect 2 0 5 0;
#X connect 3 0 6 0;
#X connect 4 0 7 0;
#X connect 5 0 8 0;
#X connect 6 0 10 0;
#X connect 7 0 11 0;
#X connect 8 0 12 0;
#X connect 9 0 0 0;
#X connect 9 0 1 0;
#X connect 9 0 2 0;
#X connect 10 0 13 0;
#X connect 11 0 15 0;
#X connect 12 0 17 0;
#X connect 13 0 14 0;
#X connect 14 0 20 0;
#X connect 15 0 16 0;
#X connect 16 0 21 0;
#X connect 17 0 18 0;
#X connect 18 0 22 0;
#X connect 19 0 9 0;
#X restore 338 179 pd colorGen;
#N canvas 34 72 1205 693 rotateAmt 0;
#X obj 363 221 inlet;
#X obj 336 365 + 1;
#X floatatom 335 396 5 0 0 0 - - - 0;
#X obj 331 444 outlet;
#X obj 348 275 bng 19 250 50 0 empty empty empty 0 -10 0 12 #fcfcfc #000000 #000000;
#X obj 337 331 random 360;
#X connect 0 0 4 0;
#X connect 1 0 2 0;
#X connect 2 0 3 0;
#X connect 4 0 5 0;
#X connect 5 0 1 0;
#X restore 333 212 pd rotateAmt;
#X obj 341 76 bng 19 250 50 0 empty empty empty 0 -10 0 12 #fcfcfc #000000 #000000;
#X obj 341 125 line;
#X msg 341 103 0.5 10;
#X floatatom 340 150 5 0 0 0 - - - 0;
#X obj 398 79 delay 10;
#X obj 178 614 loadbang;
#X obj 275 464 rotateXYZ 0 1 0;
#X obj 34 350 loadbang;
#X msg 47 381 120;
#X obj 27 469 translateXYZ;
#X obj 84 440 + 0.75;
#X obj 147 441 - 0.75;
#X obj 28 284 colorRGB;
#X obj 28 319 scaleXYZ;
#X obj 30 249 gemhead;
#X obj 29 216 tgl 19 0 empty empty empty 0 -10 0 12 #fcfcfc #000000 #000000 0 1;
#X obj 37 612 pix_texture;
#X obj 34 562 pix_image ../patches/Rayas.jpeg;
#X msg 398 104 2 200;
#X msg 108 643 draw fill;
#X obj 35 671 cone;
#X obj 537 51 inlet;
#X text 536 21 reverb amt;
#X floatatom 678 190 5 0 0 0 - - - 0;
#X obj 622 100 / 2.5;
#X obj 623 127 * 15;
#X obj 624 166 expr $f1 + $f2;
#X floatatom 688 135 5 0 0 0 - - - 0;
#X obj 705 46 inlet;
#X text 705 23 delay;
#X obj 267 45 inlet;
#X text 337 20 # of hits;
#X connect 0 0 39 0;
#X connect 2 0 21 0;
#X connect 3 0 22 0;
#X connect 3 0 23 0;
#X connect 3 0 24 0;
#X connect 4 0 44 2;
#X connect 8 0 50 0;
#X connect 10 0 33 1;
#X connect 10 0 34 0;
#X connect 10 0 35 0;
#X connect 12 0 17 0;
#X connect 12 0 18 0;
#X connect 13 0 12 1;
#X connect 14 0 19 0;
#X connect 15 0 14 0;
#X connect 16 0 15 0;
#X connect 17 0 30 3;
#X connect 18 0 13 0;
#X connect 19 0 12 0;
#X connect 20 0 44 1;
#X connect 21 0 20 0;
#X connect 22 0 36 1;
#X connect 22 1 36 2;
#X connect 22 2 36 3;
#X connect 23 0 30 2;
#X connect 24 0 26 0;
#X connect 24 0 28 0;
#X connect 25 0 27 0;
#X connect 26 0 25 0;
#X connect 27 0 37 1;
#X connect 27 0 37 2;
#X connect 27 0 37 3;
#X connect 28 0 42 0;
#X connect 29 0 43 0;
#X connect 30 0 33 0;
#X connect 31 0 32 0;
#X connect 32 0 30 1;
#X connect 33 0 41 0;
#X connect 34 0 33 2;
#X connect 35 0 33 3;
#X connect 36 0 37 0;
#X connect 37 0 30 0;
#X connect 38 0 36 0;
#X connect 39 0 38 0;
#X connect 40 0 44 0;
#X connect 41 0 40 0;
#X connect 42 0 25 0;
#X connect 43 0 44 0;
#X connect 45 0 48 0;
#X connect 48 0 49 0;
#X connect 49 0 50 1;
#X connect 49 0 51 0;
#X connect 50 0 47 0;
#X connect 50 0 19 1;
#X restore 21 484 pd GemObj5;
#X f 18;
#X obj 350 35 inlet;
#X text 336 9 reverb amt;
#N canvas 34 59 500 372 GemObj1 0;
#X obj 28 46 inlet;
#X text 28 20 on/off;
#X obj 110 45 inlet;
#X obj 258 46 inlet;
#X obj 372 43 inlet;
#X text 369 18 sleuth;
#X text 197 20 bpm;
#X text 105 20 volume;
#X obj 434 43 inlet;
#X text 431 18 res freq;
#X obj 803 47 inlet;
#X text 801 20 pan amount;
#X obj 33 266 colorRGB;
#X obj 26 390 rotateXYZ 0 1 0;
#X obj 513 207 i;
#X obj 597 207 % 360;
#X obj 514 156 t f f;
#X obj 514 130 tgl 19 0 empty empty empty 0 -10 0 12 #fcfcfc #000000 #000000 0 1;
#X obj 515 93 loadbang;
#X obj 57 334 loadbang;
#X floatatom 512 231 5 0 0 0 - - - 0;
#X obj 555 208 + 1;
#X obj 513 182 metro 10;
#X obj 31 602 sphere;
#X obj 27 447 translateXYZ;
#X obj 58 418 - 0.75;
#X obj 35 298 scaleXYZ;
#X msg 59 361 120;
#X floatatom 112 105 5 0 0 0 - - - 0;
#X obj 112 79 / 10;
#X obj 30 531 pix_texture;
#X obj 28 487 pix_image ../patches/Rayas.jpeg;
#X msg 126 554 draw fill;
#X obj 131 524 loadbang;
#X obj 31 229 gemhead;
#X obj 34 138 tgl 19 0 empty empty empty 0 -10 0 12 #fcfcfc #000000 #000000 0 1;
#N canvas 34 59 1920 907 colorGen 0;
#X obj 197 296 random 10;
#X obj 273 295 random 10;
#X obj 353 296 random 10;
#X obj 196 330 + 1;
#X obj 274 329 + 1;
#X obj 354 328 + 1;
#X floatatom 195 361 5 0 0 0 - - - 0;
#X floatatom 273 360 5 0 0 0 - - - 0;
#X floatatom 354 357 5 0 0 0 - - - 0;
#X obj 284 237 bng 19 250 50 0 empty empty empty 0 -10 0 12 #fcfcfc #000000 #000000;
#X obj 195 398 / 1;
#X obj 272 396 / 1;
#X obj 362 393 / 1;
#X obj 198 429 * 0.1;
#X floatatom 199 466 5 0 0 0 - - - 0;
#X obj 272 426 * 0.1;
#X floatatom 273 463 5 0 0 0 - - - 0;
#X obj 359 427 * 0.1;
#X floatatom 360 464 5 0 0 0 - - - 0;
#X obj 281 153 inlet;
#X obj 198 537 outlet;
#X obj 274 537 outlet;
#X obj 363 536 outlet;
#X connect 0 0 3 0;
#X connect 1 0 4 0;
#X connect 2 0 5 0;
#X connect 3 0 6 0;
#X connect 4 0 7 0;
#X connect 5 0 8 0;
#X connect 6 0 10 0;
#X connect 7 0 11 0;
#X connect 8 0 12 0;
#X connect 9 0 0 0;
#X connect 9 0 1 0;
#X connect 9 0 2 0;
#X connect 10 0 13 0;
#X connect 11 0 15 0;
#X connect 12 0 17 0;
#X connect 13 0 14 0;
#X connect 14 0 20 0;
#X connect 15 0 16 0;
#X connect 16 0 21 0;
#X connect 17 0 18 0;
#X connect 18 0 22 0;
#X connect 19 0 9 0;
#X restore 251 209 pd colorGen;
#N canvas 0 38 864 937 rotateAmt 0;
#X obj 363 221 inlet;
#X obj 336 365 + 1;
#X floatatom 335 396 5 0 0 0 - - - 0;
#X obj 331 444 outlet;
#X obj 348 275 bng 19 250 50 0 empty empty empty 0 -10 0 12 #fcfcfc #000000 #000000;
#X obj 337 331 random 360;
#X connect 0 0 4 0;
#X connect 1 0 2 0;
#X connect 2 0 3 0;
#X connect 4 0 5 0;
#X connect 5 0 1 0;
#X restore 252 245 pd rotateAmt;
#X obj 258 97 bng 19 250 50 0 empty empty empty 0 -10 0 12 #fcfcfc #000000 #000000;
#X obj 258 146 line;
#X floatatom 257 171 5 0 0 0 - - - 0;
#X obj 314 107 delay 10;
#X obj 518 47 inlet;
#X text 517 17 reverb amt;
#X msg 314 132 2.5 200;
#X msg 258 124 0.5 10;
#X obj 195 47 inlet;
#X text 256 22 # of hits;
#X floatatom 608 186 5 0 0 0 - - - 0;
#X obj 609 94 / 2.5;
#X obj 610 121 * 15;
#X obj 611 160 expr $f1 + $f2;
#X floatatom 635 142 5 0 0 0 - - - 0;
#X obj 717 50 inlet;
#X text 712 21 delay;
#X connect 0 0 35 0;
#X connect 2 0 29 0;
#X connect 3 0 36 0;
#X connect 3 0 37 0;
#X connect 3 0 38 0;
#X connect 4 0 23 2;
#X connect 8 0 51 0;
#X connect 10 0 25 0;
#X connect 10 0 24 2;
#X connect 10 0 24 3;
#X connect 12 0 26 0;
#X connect 13 0 24 0;
#X connect 14 0 20 0;
#X connect 14 0 21 0;
#X connect 15 0 14 1;
#X connect 16 0 22 0;
#X connect 17 0 16 0;
#X connect 18 0 17 0;
#X connect 19 0 27 0;
#X connect 20 0 13 3;
#X connect 21 0 15 0;
#X connect 22 0 14 0;
#X connect 24 0 31 0;
#X connect 25 0 24 1;
#X connect 26 0 13 0;
#X connect 27 0 13 1;
#X connect 28 0 23 1;
#X connect 29 0 28 0;
#X connect 30 0 23 0;
#X connect 31 0 30 0;
#X connect 32 0 23 0;
#X connect 33 0 32 0;
#X connect 34 0 12 0;
#X connect 35 0 34 0;
#X connect 36 0 12 1;
#X connect 36 1 12 2;
#X connect 36 2 12 3;
#X connect 37 0 13 2;
#X connect 38 0 45 0;
#X connect 38 0 41 0;
#X connect 39 0 40 0;
#X connect 40 0 26 1;
#X connect 40 0 26 2;
#X connect 40 0 26 3;
#X connect 41 0 44 0;
#X connect 42 0 49 0;
#X connect 44 0 39 0;
#X connect 45 0 39 0;
#X connect 49 0 50 0;
#X connect 50 0 51 1;
#X connect 50 0 52 0;
#X connect 51 0 48 0;
#X connect 51 0 22 1;
#X restore 25 380 pd GemObj1;
#X f 18;
#X obj 506 36 inlet;
#X text 505 13 delay;
#X obj 438 35 inlet;
#X text 435 11 chorus;
#X text 655 11 last note played;
#X obj 91 36 inlet;
#X text 142 13 # of hits;
#X text 751 64 comment;
#X connect 0 0 24 1;
#X connect 0 0 18 1;
#X connect 0 0 19 1;
#X connect 0 0 20 1;
#X connect 0 0 21 1;
#X connect 1 0 24 3;
#X connect 1 0 18 4;
#X connect 1 0 19 4;
#X connect 1 0 20 4;
#X connect 1 0 21 4;
#X connect 2 0 24 4;
#X connect 2 0 18 2;
#X connect 2 0 19 2;
#X connect 2 0 20 2;
#X connect 2 0 21 2;
#X connect 6 0 24 5;
#X connect 6 0 18 5;
#X connect 6 0 19 5;
#X connect 6 0 20 5;
#X connect 6 0 21 5;
#X connect 8 0 24 8;
#X connect 8 0 18 7;
#X connect 8 0 19 7;
#X connect 8 0 20 7;
#X connect 8 0 21 8;
#X connect 10 0 17 0;
#X connect 12 0 24 0;
#X connect 13 0 18 0;
#X connect 14 0 19 0;
#X connect 15 0 20 0;
#X connect 16 0 21 0;
#X connect 17 0 12 0;
#X connect 17 1 13 0;
#X connect 17 2 14 0;
#X connect 17 3 15 0;
#X connect 17 4 16 0;
#X connect 22 0 20 6;
#X connect 22 0 19 6;
#X connect 22 0 24 6;
#X connect 22 0 18 6;
#X connect 22 0 21 6;
#X connect 30 0 24 2;
#X restore 28 630 pd GemShapes;
#X floatatom 372 157 5 0 0 0 - - - 0;
#X floatatom 28 46 5 0 0 0 - - - 0;
#X obj 376 109 * 40;
#X obj 424 33 inlet;
#X text 424 9 reverb amt;
#X floatatom 455 60 5 0 0 0 - - - 0;
#X obj 425 122 - 1.1;
#N canvas 0 38 864 936 GemParticles 0;
#X obj 23 37 inlet;
#X obj 97 35 inlet;
#X obj 250 35 inlet;
#X obj 670 32 inlet;
#X text 247 11 sleuth;
#X text 22 7 volume;
#X text 671 6 pitches;
#X obj 306 33 inlet;
#X text 303 8 res freq;
#X obj 584 32 inlet;
#X text 582 5 pan amount;
#X obj 375 32 inlet;
#X text 375 8 reverb amt;
#X obj 460 34 inlet;
#N canvas 0 38 1728 936 GemPart 0;
#X obj 34 43 inlet;
#X obj 118 40 inlet;
#X obj 258 38 inlet;
#X text 255 14 sleuth;
#X text 33 13 volume;
#X obj 316 39 inlet;
#X text 313 14 res freq;
#X obj 712 38 inlet;
#X text 710 11 pan amount;
#X obj 392 37 inlet;
#X text 392 13 reverb amt;
#X obj 497 38 inlet;
#X obj 38 255 part_head;
#X obj 146 493 part_color;
#X text 181 438 color 1;
#X text 243 440 color 2;
#X obj 145 342 part_killold 10;
#X obj 37 283 part_size 0.2;
#X obj 148 140 vsl 19 162 0 1 0 0 empty empty empty 0 -9 0 12 #fcfcfc #000000 #000000 0 1;
#X obj 145 370 part_velocity blob 0 0 0 0.1;
#X obj 180 401 loadbang;
#X msg 80 229 speed \$1;
#X obj 150 626 part_render;
#X obj 316 595 loadbang;
#X msg 239 627 draw fill;
#X obj 150 598 scale;
#X obj 167 548 loadbang;
#X obj 118 423 vsl 19 162 0 0.5 0 0 empty empty empty 0 -9 0 12 #fcfcfc #000000 #000000 0 1;
#X msg 168 573 0.2;
#X msg 316 627 draw line;
#X obj 37 206 gemhead;
#X obj 143 314 part_source 0.1;
#X floatatom 155 64 5 0 0 0 - - - 0;
#X text 108 15 bpm amt;
#X floatatom 340 61 5 0 0 0 - - - 0;
#X floatatom 70 117 5 0 0 0 - - - 0;
#X floatatom 523 60 5 0 0 0 - - - 0;
#X obj 499 84 / 1.1;
#X obj 483 114 * 3;
#X obj 118 85 / 400;
#X obj 149 663 cube, f 13;
#X msg 209 573 1 1 1;
#X obj 149 525 rotateXYZ 45 45 45;
#N canvas 0 38 864 937 rotateAmtToBpm 0;
#X obj 17 46 inlet;
#X text 13 22 rotate amt;
#X obj 47 281 + 1;
#X floatatom 46 312 5 0 0 0 - - - 0;
#X obj 42 360 outlet;
#X obj 59 191 bng 19 250 50 0 empty empty empty 0 -10 0 12 #fcfcfc #000000 #000000;
#N canvas 0 38 864 937 bpm_hits 0;
#X obj 24 33 inlet;
#X text 22 13 bpm amt;
#X msg 94 120 tempo \$1 permin;
#X obj 51 145 metro 0.25 120 permin;
#X text 23 96 bpm hits/tempo;
#X obj 24 145 tgl 19 0 empty empty empty 0 -10 0 12 #fcfcfc #000000 #000000 0 1;
#X obj 24 119 loadbang;
#X obj 25 210 outlet;
#X obj 123 185 bng 19 250 50 0 empty empty empty 0 -10 0 12 #fcfcfc #000000 #000000;
#X connect 0 0 2 0;
#X connect 2 0 3 0;
#X connect 3 0 7 0;
#X connect 3 0 8 0;
#X connect 5 0 3 0;
#X connect 6 0 5 0;
#X restore 59 139 pd bpm_hits;
#X floatatom 125 72 5 0 0 0 - - - 0;
#X obj 48 247 random 180;
#X obj 57 106 * 200;
#X connect 0 0 7 0;
#X connect 0 0 9 0;
#X connect 2 0 3 0;
#X connect 3 0 4 0;
#X connect 5 0 8 0;
#X connect 6 0 5 0;
#X connect 8 0 2 0;
#X connect 9 0 6 0;
#X restore 334 458 pd rotateAmtToBpm;
#X obj 316 87 / 40;
#X obj 118 109 * 20;
#X msg 213 265 symbol sphere;
#X obj 211 236 loadbang;
#X floatatom 741 67 5 0 0 0 - - - 0;
#X floatatom 402 66 5 0 0 0 - - - 0;
#X listbox 288 317 20 0 0 0 - - - 0;
#X floatatom 757 130 5 0 0 0 - - - 0;
#X msg 294 292 \$1 0 0 5;
#N canvas 0 38 864 937 colorGen 0;
#X obj 197 296 random 10;
#X obj 273 295 random 10;
#X obj 353 296 random 10;
#X obj 196 330 + 1;
#X obj 274 329 + 1;
#X obj 354 328 + 1;
#X floatatom 195 361 5 0 0 0 - - - 0;
#X floatatom 273 360 5 0 0 0 - - - 0;
#X floatatom 354 357 5 0 0 0 - - - 0;
#X obj 284 237 bng 19 250 50 0 empty empty empty 0 -10 0 12 #fcfcfc #000000 #000000;
#X obj 195 398 / 1;
#X obj 272 396 / 1;
#X obj 362 393 / 1;
#X obj 198 429 * 0.1;
#X floatatom 199 466 5 0 0 0 - - - 0;
#X obj 272 426 * 0.1;
#X floatatom 273 463 5 0 0 0 - - - 0;
#X obj 359 427 * 0.1;
#X floatatom 360 464 5 0 0 0 - - - 0;
#X obj 281 153 inlet;
#X obj 198 537 outlet;
#X obj 274 537 outlet;
#X obj 363 536 outlet;
#X connect 0 0 3 0;
#X connect 1 0 4 0;
#X connect 2 0 5 0;
#X connect 3 0 6 0;
#X connect 4 0 7 0;
#X connect 5 0 8 0;
#X connect 6 0 10 0;
#X connect 7 0 11 0;
#X connect 8 0 12 0;
#X connect 9 0 0 0;
#X connect 9 0 1 0;
#X connect 9 0 2 0;
#X connect 10 0 13 0;
#X connect 11 0 15 0;
#X connect 12 0 17 0;
#X connect 13 0 14 0;
#X connect 14 0 20 0;
#X connect 15 0 16 0;
#X connect 16 0 21 0;
#X connect 17 0 18 0;
#X connect 18 0 22 0;
#X connect 19 0 9 0;
#X restore 275 401 pd colorGen;
#X text 430 349 TODO how to fit 3 var numbers in a message;
#X obj 182 36 inlet;
#X text 175 15 # of hits;
#X obj 219 69 bng 19 250 50 0 empty empty empty 0 -10 0 12 #fcfcfc #000000 #000000;
#X obj 596 36 inlet;
#X text 591 14 delay;
#X floatatom 604 65 5 0 0 0 - - - 0;
#X msg 234 459 \$1 \$1 \$1;
#X msg 179 460 0 \$1 0;
#X msg 350 345 0 0 \$1 0;
#X obj 729 97 * 1.75;
#X floatatom 269 118 5 0 0 0 - - - 0;
#X obj 260 63 * 1;
#X text 493 9 chorus;
#X obj 33 76 / 0.9;
#X text 432 219 comment;
#X obj 260 91 + 20;
#X connect 0 0 68 0;
#X connect 1 0 32 0;
#X connect 1 0 39 0;
#X connect 2 0 66 0;
#X connect 5 0 34 0;
#X connect 5 0 44 0;
#X connect 7 0 48 0;
#X connect 7 0 64 0;
#X connect 9 0 21 0;
#X connect 9 0 49 0;
#X connect 11 0 37 0;
#X connect 11 0 36 0;
#X connect 12 0 17 0;
#X connect 13 0 42 0;
#X connect 16 0 19 0;
#X connect 17 0 31 0;
#X connect 18 0 17 1;
#X connect 19 0 13 0;
#X connect 20 0 62 0;
#X connect 20 0 61 0;
#X connect 21 0 12 0;
#X connect 22 0 40 0;
#X connect 23 0 29 0;
#X connect 24 0 40 0;
#X connect 25 0 22 0;
#X connect 26 0 28 0;
#X connect 27 0 25 1;
#X connect 28 0 25 1;
#X connect 29 0 40 0;
#X connect 30 0 12 0;
#X connect 31 0 16 0;
#X connect 37 0 38 0;
#X connect 38 0 18 0;
#X connect 39 0 45 0;
#X connect 41 0 25 2;
#X connect 42 0 25 0;
#X connect 43 0 42 1;
#X connect 43 0 42 2;
#X connect 43 0 42 3;
#X connect 45 0 31 1;
#X connect 46 0 31 2;
#X connect 47 0 46 0;
#X connect 52 0 31 3;
#X connect 52 0 50 0;
#X connect 53 0 62 0;
#X connect 53 1 61 0;
#X connect 55 0 57 0;
#X connect 55 0 53 0;
#X connect 58 0 60 0;
#X connect 58 0 43 0;
#X connect 61 0 13 2;
#X connect 62 0 13 1;
#X connect 63 0 19 2;
#X connect 64 0 51 0;
#X connect 64 0 52 0;
#X connect 64 0 63 0;
#X connect 66 0 70 0;
#X connect 68 0 35 0;
#X connect 68 0 27 0;
#X connect 70 0 65 0;
#X connect 70 0 16 1;
#X restore 116 246 pd GemPart;
#X f 21;
#N canvas 34 72 500 372 GemPart2 0;
#X obj 34 43 inlet;
#X obj 107 42 inlet;
#X obj 172 41 inlet;
#X text 169 17 sleuth;
#X text 110 17 bpm;
#X text 33 13 volume;
#X obj 234 40 inlet;
#X text 231 15 res freq;
#X obj 313 39 inlet;
#X text 313 15 reverb amt;
#X obj 411 42 inlet;
#X obj 30 228 part_head;
#X obj 164 479 part_color;
#X text 192 425 color 1;
#X text 254 427 color 2;
#X obj 31 255 part_size 0.2;
#X obj 140 108 vsl 19 162 0 1 0 0 empty empty empty 0 -9 0 12 #fcfcfc #000000 #000000 0 1;
#X obj 170 356 part_velocity blob 0 0 0 0.1;
#X msg 197 449 0 1 0;
#X msg 252 448 1 1 0;
#X obj 237 387 loadbang;
#X msg 72 202 speed \$1;
#X obj 29 161 gemhead;
#X obj 166 593 part_draw;
#X msg 172 564 draw line;
#X obj 172 531 loadbang;
#X floatatom 244 69 5 0 0 0 - - - 0;
#X msg 248 224 symbol sphere;
#X obj 246 195 loadbang;
#X listbox 323 276 20 0 0 0 - - - 0;
#X msg 329 251 \$1 0 0 5;
#X text 465 308 TODO how to fit 3 var numbers in a message;
#X msg 385 304 0 0 \$1 0;
#X text 467 178 comment;
#X text 407 13 chorus;
#X obj 484 42 inlet;
#X text 481 15 delay;
#X obj 559 39 inlet;
#X text 557 12 pan amount;
#X floatatom 588 68 5 0 0 0 - - - 0;
#X floatatom 604 131 5 0 0 0 - - - 0;
#X obj 576 98 * 1.75;
#X obj 169 281 part_source 0.75;
#X obj 172 318 part_killold 20;
#X connect 2 0 43 1;
#X connect 6 0 26 0;
#X connect 6 0 42 1;
#X connect 8 0 21 0;
#X connect 10 0 16 0;
#X connect 11 0 15 0;
#X connect 12 0 23 0;
#X connect 15 0 42 0;
#X connect 16 0 15 1;
#X connect 17 0 12 0;
#X connect 18 0 12 1;
#X connect 19 0 12 2;
#X connect 20 0 18 0;
#X connect 20 0 19 0;
#X connect 21 0 11 0;
#X connect 22 0 11 0;
#X connect 24 0 23 0;
#X connect 25 0 24 0;
#X connect 27 0 42 2;
#X connect 28 0 27 0;
#X connect 30 0 29 0;
#X connect 30 0 42 3;
#X connect 32 0 17 2;
#X connect 37 0 39 0;
#X connect 37 0 41 0;
#X connect 41 0 40 0;
#X connect 41 0 32 0;
#X connect 41 0 30 0;
#X connect 42 0 43 0;
#X connect 43 0 17 0;
#X restore 308 246 pd GemPart2;
#X f 21;
#X text 88 10 bpm amt;
#X obj 166 33 inlet;
#X text 159 12 # of hits;
#X obj 518 33 inlet;
#X text 521 6 delay;
#X text 456 5 chorus;
#X connect 0 0 14 0;
#X connect 0 0 15 0;
#X connect 1 0 14 1;
#X connect 1 0 15 1;
#X connect 2 0 14 3;
#X connect 2 0 15 2;
#X connect 7 0 14 4;
#X connect 7 0 15 3;
#X connect 9 0 14 8;
#X connect 9 0 15 7;
#X connect 11 0 14 5;
#X connect 11 0 15 4;
#X connect 13 0 14 6;
#X connect 13 0 15 5;
#X connect 17 0 14 2;
#X connect 19 0 14 7;
#X connect 19 0 15 6;
#X restore 245 632 pd GemParticles;
#X obj 510 33 inlet;
#X floatatom 519 59 5 0 0 0 - - - 0;
#X obj 280 76 / 100;
#X floatatom 606 58 5 0 0 0 - - - 0;
#X obj 590 82 * 3000;
#X obj 590 33 inlet;
#X text 588 11 delay;
#X obj 83 26 inlet;
#X text 80 3 bpm amt;
#X obj 4 101 * 10;
#X obj 426 150 * -0.7;
#X text 996 12 open;
#X text 1045 11 close;
#X text 869 12 last note played;
#X floatatom 98 49 5 0 0 0 - - - 0;
#X floatatom 451 174 5 0 0 0 - - - 0;
#X floatatom 289 54 5 0 0 0 - - - 0;
#X floatatom 382 74 5 0 0 0 - - - 0;
#X obj 333 72 / 5000;
#X floatatom 246 137 5 0 0 0 - - - 0;
#X obj 245 77 / 3;
#X obj 5 73 / 6;
#X obj 42 73 / 1.5;
#X obj 436 92 / 20;
#X text 501 11 chorus amt;
#X obj 512 83 + 0.05;
#X obj 174 25 inlet;
#X text 167 4 # of hits;
#X obj 175 54 bng 19 250 50 0 empty empty empty 0 -10 0 12 #fcfcfc #000000 #000000;
#X text 755 12 pitches played;
#X listbox 729 60 20 0 0 0 - - - 0;
#X floatatom 685 59 5 0 0 0 - - - 0;
#X connect 0 0 4 0;
#X connect 1 0 5 0;
#X connect 2 0 25 0;
#X connect 2 0 53 0;
#X connect 2 0 54 0;
#X connect 4 0 3 0;
#X connect 5 0 3 0;
#X connect 6 0 3 0;
#X connect 7 0 62 0;
#X connect 8 0 48 0;
#X connect 8 0 34 0;
#X connect 8 0 52 0;
#X connect 8 0 31 3;
#X connect 9 0 12 0;
#X connect 12 0 31 9;
#X connect 12 0 23 9;
#X connect 14 0 49 0;
#X connect 14 0 50 0;
#X connect 16 0 23 4;
#X connect 17 0 16 0;
#X connect 18 0 17 0;
#X connect 19 0 22 0;
#X connect 19 0 63 0;
#X connect 22 0 21 0;
#X connect 22 0 23 8;
#X connect 22 0 31 8;
#X connect 24 0 31 4;
#X connect 26 0 24 0;
#X connect 27 0 29 0;
#X connect 27 0 55 0;
#X connect 30 0 42 0;
#X connect 32 0 33 0;
#X connect 32 0 57 0;
#X connect 36 0 31 7;
#X connect 37 0 35 0;
#X connect 37 0 36 0;
#X connect 39 0 31 1;
#X connect 39 0 46 0;
#X connect 39 0 23 1;
#X connect 41 0 23 0;
#X connect 42 0 47 0;
#X connect 42 0 31 5;
#X connect 50 0 18 0;
#X connect 50 0 26 0;
#X connect 52 0 23 3;
#X connect 52 0 51 0;
#X connect 53 0 41 0;
#X connect 54 0 31 0;
#X connect 55 0 30 0;
#X connect 55 0 23 5;
#X connect 57 0 31 6;
#X connect 58 0 60 0;
#X connect 60 0 23 2;
#X connect 60 0 31 2;
#X restore 73 890 pd Visualizer;
#X f 31;
#X connect 0 0 34 0;
#X connect 0 0 52 0;
#X connect 1 0 38 0;
#X connect 1 0 37 0;
#X connect 2 0 35 0;
#X connect 2 0 41 0;
#X connect 3 0 46 0;
#X connect 3 0 4 0;
#X connect 6 0 7 0;
#X connect 6 0 40 0;
#X connect 7 0 42 1;
#X connect 7 0 61 4;
#X connect 8 0 16 0;
#X connect 8 0 15 0;
#X connect 9 0 10 0;
#X connect 9 0 55 1;
#X connect 9 0 61 6;
#X connect 16 0 17 2;
#X connect 16 0 61 5;
#X connect 17 0 22 0;
#X connect 18 0 20 0;
#X connect 18 0 22 1;
#X connect 18 0 61 7;
#X connect 21 0 26 0;
#X connect 21 0 30 1;
#X connect 22 0 55 0;
#X connect 24 0 25 0;
#X connect 24 0 26 1;
#X connect 24 0 61 8;
#X connect 26 0 5 0;
#X connect 26 1 5 1;
#X connect 27 0 29 0;
#X connect 29 0 28 0;
#X connect 29 0 3 0;
#X connect 29 0 61 2;
#X connect 29 0 61 9;
#X connect 29 1 61 10;
#X connect 31 0 27 0;
#X connect 33 0 30 0;
#X connect 36 0 33 0;
#X connect 38 0 46 1;
#X connect 38 0 61 3;
#X connect 41 0 50 1;
#X connect 41 0 53 0;
#X connect 41 0 61 0;
#X connect 42 0 17 0;
#X connect 42 0 17 1;
#X connect 43 0 3 0;
#X connect 43 1 45 0;
#X connect 43 1 44 0;
#X connect 45 0 47 0;
#X connect 45 1 49 0;
#X connect 46 0 42 0;
#X connect 47 0 48 0;
#X connect 48 0 50 3;
#X connect 49 0 50 2;
#X connect 49 0 51 0;
#X connect 50 0 21 0;
#X connect 52 0 29 1;
#X connect 52 0 56 0;
#X connect 53 0 17 3;
#X connect 55 0 50 0;
#X connect 56 0 61 1;
#X connect 57 0 61 11;
#X connect 58 0 61 12;
#X restore 9 256 pd synth;
#X f 26;
#X obj 15 225 hsl 162 19 0 1 0 0 empty empty Volume -2 -10 0 12 #fcfcfc #000000 #000000 0 1;
#N canvas 0 22 450 278 (subpatch) 0;
#X array oscilo 500 float 1;
#A 0 0 0 0 0 0 0 0 0 0 0 0 0 0 0 0 0 0 0 0 0 0 0 0 0 0 0 0 0 0 0 0 0 0 0 0 0 0 0 0 0 0 0 0 0 0 0 0 0 0 0 0 0 0 0 0 0 0 0 0 0 0 0 0 0 0 0 0 0 0 0 0 0 0 0 0 0 0 0 0 0 0 0 0 0 0 0 0 0 0 0 0 0 0 0 0 0 0 0 0 0 0 0 0 0 0 0 0 0 0 0 0 0 0 0 0 0 0 0 0 0 0 0 0 0 0 0 0 0 0 0 0 0 0 0 0 0 0 0 0 0 0 0 0 0 0 0 0 0 0 0 0 0 0 0 0 0 0 0 0 0 0 0 0 0 0 0 0 0 0 0 0 0 0 0 0 0 0 0 0 0 0 0 0 0 0 0 0 0 0 0 0 0 0 0 0 0 0 0 0 0 0 0 0 0 0 0 0 0 0 0 0 0 0 0 0 0 0 0 0 0 0 0 0 0 0 0 0 0 0 0 0 0 0 0 0 0 0 0 0 0 0 0 0 0 0 0 0 0 0 0 0 0 0 0 0 0 0 0 0 0 0 0 0 0 0 0 0 0 0 0 0 0 0 0 0 0 0 0 0 0 0 0 0 0 0 0 0 0 0 0 0 0 0 0 0 0 0 0 0 0 0 0 0 0 0 0 0 0 0 0 0 0 0 0 0 0 0 0 0 0 0 0 0 0 0 0 0 0 0 0 0 0 0 0 0 0 0 0 0 0 0 0 0 0 0 0 0 0 0 0 0 0 0 0 0 0 0 0 0 0 0 0 0 0 0 0 0 0 0 0 0 0 0 0 0 0 0 0 0 0 0 0 0 0 0 0 0 0 0 0 0 0 0 0 0 0 0 0 0 0 0 0 0 0 0 0 0 0 0 0 0 0 0 0 0 0 0 0 0 0 0 0 0 0 0 0 0 0 0 0 0 0 0 0 0 0 0 0 0 0 0 0 0 0 0 0 0 0 0 0 0 0 0 0 0 0 0 0 0 0 0 0 0 0 0 0 0 0 0 0 0 0 0 0 0 0 0 0 0 0 0 0 0 0 0 0 0 0 0 0 0 0 0 0 0 0 0 0 0 0;
#X coords 0 1 499 -1 320 252 1;
#X restore 434 44 graph;
#X obj 10 23 tgl 19 0 empty empty empty 0 -10 0 12 #fcfcfc #000000 #000000 0 1;
#X msg 10 59 \; pd dsp \$1, f 13;
#X text 9 3 turn on/off pd dsp;
#X obj 190 229 tgl 19 0 empty empty empty 0 -10 0 12 #fcfcfc #000000 #000000 0 1;
#X text 190 206 arp on/off;
#X text 196 51 maps knob to parameter;
#N canvas 0 38 1728 941 controls 0;
#X floatatom 196 66 5 0 0 0 - - - 12;
#X floatatom 261 66 5 0 0 0 - - - 12;
#X floatatom 129 66 5 0 0 0 - - - 12;
#X floatatom 330 65 5 0 0 0 - - - 12;
#X floatatom 390 65 5 0 0 0 - - - 12;
#X floatatom 448 65 5 0 0 0 - - - 12;
#X obj 311 18 ctlin 4;
#X obj 371 18 ctlin 5;
#X obj 429 18 ctlin 6;
#X obj 177 192 / 127;
#X obj 177 231 outlet;
#X obj 241 192 / 127;
#X obj 241 231 outlet;
#X obj 115 191 / 127;
#X obj 115 230 outlet;
#X obj 315 190 / 127;
#X obj 315 229 outlet;
#X obj 380 190 / 127;
#X obj 380 229 outlet;
#X obj 440 188 / 127;
#X obj 440 227 outlet;
#X floatatom 513 65 5 0 0 0 - - - 12;
#X floatatom 573 65 5 0 0 0 - - - 12;
#X obj 494 18 ctlin 7;
#X obj 554 18 ctlin 8;
#X obj 502 189 / 127;
#X obj 502 228 outlet;
#X obj 562 187 / 127;
#X obj 562 226 outlet;
#X floatatom 12 204 5 0 0 0 - - - 0;
#X obj 89 381 notein;
#X floatatom 88 414 5 0 0 0 - - - 0;
#X floatatom 109 454 5 0 0 0 - - - 0;
#X floatatom 151 493 5 0 0 0 - - - 0;
#X obj 633 17 ctlin 9;
#X floatatom 642 68 5 0 0 0 - - - 0;
#X obj 240 19 ctlin 3;
#X obj 110 19 ctlin 1;
#X obj 177 19 ctlin 2;
#X connect 6 0 3 0;
#X connect 6 0 15 0;
#X connect 7 0 4 0;
#X connect 7 0 17 0;
#X connect 8 0 5 0;
#X connect 8 0 19 0;
#X connect 9 0 10 0;
#X connect 9 0 29 0;
#X connect 11 0 12 0;
#X connect 13 0 14 0;
#X connect 15 0 16 0;
#X connect 17 0 18 0;
#X connect 19 0 20 0;
#X connect 23 0 21 0;
#X connect 23 0 25 0;
#X connect 24 0 22 0;
#X connect 24 0 27 0;
#X connect 25 0 26 0;
#X connect 27 0 28 0;
#X connect 30 0 31 0;
#X connect 30 1 32 0;
#X connect 30 2 33 0;
#X connect 34 0 35 0;
#X connect 36 0 1 0;
#X connect 36 0 11 0;
#X connect 37 0 2 0;
#X connect 37 0 13 0;
#X connect 38 0 0 0;
#X connect 38 0 9 0;
#X restore 197 76 pd controls;
#X text 17 313 Using Arp - map 4 notes that you want to repeat - hold the 4th note to play 4 note pattern;
#X obj 286 225 bng 19 250 50 0 empty empty empty 0 -10 0 12 #fcfcfc #000000 #000000;
#X obj 359 222 bng 19 250 50 0 empty empty empty 0 -10 0 12 #fcfcfc #000000 #000000;
#X text 281 188 open vis;
#X text 353 187 close vis;
#X text 441 455 1) Volume -> Object Size 2) BPM -> spawn rate of the objects (uses the hits of the bpm to trigger a respawn action) 3) # of hits (this is the bpm translated into a metronome tick) 4) Sleuth -> some objects have a segments amount that make the granularity of the shape higher or lower) 5) ResFrequency -> increases the speed of objects 6) Reverb -> this slows down the speed of the objects 7) Chorus -> Currently doesn't have a mapping 8) Delay -> Currently doesn't have a mapping 9) Pan -> shifts objects to the left or right The latter includes particle effects like spawning line and cube particles. The effects that 1-8 map to are as follows: 1) Volume -> Object Size 2) BPM -> spawn rate of particles 3) # of hits (this is the bpm translated into a metronome tick) 4) Sleuth -> increases the life of a particle 5) Res freq -> Currently doesnt have a mapping 6) Reverb amt -> this slows down the speed of the objects 7) Chorus -> changes the size of the particles 8) Delay -> changes the rotate speed of objects 9) Pan -> shifts objects to the left or right;
#X text 570 417 Visualizer;
#X text 74 420 Synthesizer;
#X text 312 379 Knobs Instructions;
#X text 13 464 1) Volume 2) Arp tempo rate (beats per min) 3) Sleuth/glide amount 4) Resonance frequency cutoff (like a band pass filter) 5) Reverb amount 6) Chorus amount 7) Delay Amount 8) Panning (centered at middle \, turn left to move left etc);
#X connect 1 0 0 0;
#X connect 3 0 4 0;
#X connect 6 0 0 8;
#X connect 9 0 1 0;
#X connect 9 1 0 1;
#X connect 9 2 0 2;
#X connect 9 3 0 3;
#X connect 9 4 0 4;
#X connect 9 5 0 5;
#X connect 9 6 0 6;
#X connect 9 7 0 7;
#X connect 11 0 0 9;
#X connect 12 0 0 10;
